PathFileType	4	(X/Y/Z)	C:/Users/opensim2020/Desktop/walking_exp_matlab/subject02_walking09_straight_01.trc	
DataRate	CameraRate	NumFrames	NumMarkers	Units	OrigDataRate	OrigDataStartFrame	OrigNumFrames	
100.00	100.00	4	42	mm	100.00	599	293	
Frame#	Time	LFHD			RFHD			LBHD			RBHD			C7			T10			CLAV			STRN			RBAK			LSHO			LUPA			LELB			LFRM			LWRA			LWRB			LFIN			RSHO			RUPA			RELB			RFRM			RWRA			RWRB			RFIN			LASI			RASI			LPSI			RPSI			LTHI			LKNE			LTIB			LANK			LHEE			LTOE			RTHI			RKNE			RTIB			RANK			RHEE			RTOE			*39			*40			*41			
		X1	Y1	Z1	X2	Y2	Z2	X3	Y3	Z3	X4	Y4	Z4	X5	Y5	Z5	X6	Y6	Z6	X7	Y7	Z7	X8	Y8	Z8	X9	Y9	Z9	X10	Y10	Z10	X11	Y11	Z11	X12	Y12	Z12	X13	Y13	Z13	X14	Y14	Z14	X15	Y15	Z15	X16	Y16	Z16	X17	Y17	Z17	X18	Y18	Z18	X19	Y19	Z19	X20	Y20	Z20	X21	Y21	Z21	X22	Y22	Z22	X23	Y23	Z23	X24	Y24	Z24	X25	Y25	Z25	X26	Y26	Z26	X27	Y27	Z27	X28	Y28	Z28	X29	Y29	Z29	X30	Y30	Z30	X31	Y31	Z31	X32	Y32	Z32	X33	Y33	Z33	X34	Y34	Z34	X35	Y35	Z35	X36	Y36	Z36	X37	Y37	Z37	X38	Y38	Z38	X39	Y39	Z39	X40	Y40	Z40	X41	Y41	Z41	X42	Y42	Z42	

74	0.730	-1070.88110	-780.71466	1735.71716	-925.89697	-792.62604	1713.10400	-1093.64551	-884.35175	1631.56628	-955.22839	-911.29736	1604.75659	-1018.09711	-928.70850	1498.91931	-1007.04852	-978.27448	1226.02502	-1031.55164	-785.79321	1433.31812	-1015.68817	-732.07257	1261.82751	-947.70874	-982.59985	1329.03589	-1198.29358	-866.27716	1469.69788	-1275.44153	-924.74744	1278.88208	-1287.64966	-960.94287	1145.23425	-1312.09607	-991.01556	1019.12970	-1306.51221	-966.62500	879.63422	-1326.09937	-1016.75500	898.35181	-1334.45593	-1018.05872	830.57373	-833.99719	-843.31323	1472.19788	-739.65259	-838.93207	1285.09692	-713.95605	-789.89355	1146.00244	-700.52179	-720.15125	1045.91382	-727.28333	-631.49872	945.80334	-690.86823	-670.95648	925.19501	-692.52972	-611.88000	882.65961	-1132.35059	-733.04797	974.67700	-874.21393	-754.82880	946.83185	-1068.58240	-950.22522	1007.17505	-956.67694	-964.24469	1003.42200	-1211.93445	-733.15900	674.45367	-1184.82288	-710.18524	473.29895	-1185.97766	-712.78632	278.04596	-1165.88147	-649.50665	63.69307	-1112.68909	-678.96088	35.97904	-1177.39661	-491.94690	43.65005	-822.57727	-908.54730	655.51428	-857.51093	-966.89771	454.02393	-856.25409	-1085.45422	305.57568	-890.88940	-1182.29077	135.97740	-947.78918	-1232.32056	97.76202	-882.74152	-1057.94263	30.81394	-992.38263	-903.76349	1771.68823						 
75	0.740	-1072.92285	-771.77985	1736.36682	-928.30994	-784.05475	1713.53833	-1096.29126	-875.66888	1632.32996	-957.92865	-902.64551	1605.37781	-1020.79919	-919.85699	1499.42981	-1009.98059	-968.34985	1225.98059	-1034.14526	-777.13184	1434.06238	-1018.38184	-722.55554	1262.99976	-950.95172	-973.58386	1328.88818	-1201.19470	-857.45929	1469.76807	-1278.09131	-914.77386	1278.35950	-1289.96057	-950.27759	1144.51233	-1314.18481	-980.09076	1018.42596	-1308.45093	-955.52307	878.83765	-1328.00549	-1005.75800	897.85431	-1336.26733	-1006.92535	829.90021	-836.11194	-834.80701	1471.97632	-742.58490	-831.40295	1284.35999	-716.71570	-782.85028	1145.08752	-702.84015	-713.85303	1044.63086	-729.54559	-625.69983	944.14874	-693.33551	-665.44019	923.80957	-694.60187	-606.65173	881.15741	-1135.35352	-721.23438	975.69543	-877.24530	-743.13757	946.83044	-1071.71167	-939.05524	1008.76221	-960.01794	-953.02844	1002.85431	-1214.55835	-723.33856	676.44635	-1186.80322	-699.19147	475.36319	-1192.06970	-704.79077	280.16132	-1165.52380	-649.42212	64.59147	-1112.83472	-678.75214	36.37026	-1177.14172	-491.31088	41.68806	-824.28882	-897.48706	656.11505	-857.19672	-955.46985	454.91574	-856.05487	-1077.19836	309.02811	-889.79712	-1177.61108	141.50369	-946.99573	-1228.03552	105.20679	-882.28442	-1057.42261	30.82924	-994.65240	-895.09766	1772.38989						 
76	0.750	-1075.22070	-762.96985	1737.29553	-930.71271	-775.61841	1714.36267	-1098.84619	-867.01190	1633.31628	-960.68689	-893.75226	1606.16040	-1023.35059	-911.11407	1500.36633	-1012.53595	-958.45709	1226.06750	-1036.62012	-768.58075	1434.98425	-1021.12231	-713.08636	1264.43738	-954.01056	-965.15747	1329.02466	-1204.04248	-848.48871	1470.17163	-1280.54321	-904.46991	1278.02637	-1292.28699	-939.18689	1144.17883	-1316.34375	-968.73425	1017.99316	-1310.34338	-943.79346	878.61700	-1330.13403	-994.01044	897.11444	-1338.25281	-995.20374	829.41418	-838.27563	-825.99945	1472.22681	-745.55560	-824.27423	1283.88391	-719.71283	-775.85925	1144.67700	-705.44379	-708.02338	1043.75537	-732.08765	-620.46448	942.58759	-695.89374	-660.40009	922.52905	-696.90912	-601.86444	879.49335	-1138.51538	-709.90692	977.03967	-880.64374	-731.40784	947.04834	-1074.63928	-928.26062	1010.78809	-962.82001	-941.48071	1002.98328	-1216.49243	-712.88989	678.32684	-1188.41382	-688.37256	476.91895	-1195.96899	-697.31573	281.86896	-1165.38928	-647.72040	65.43768	-1112.93689	-678.11359	36.72500	-1175.27478	-489.77008	40.12882	-826.06860	-885.71967	656.67590	-856.57977	-942.95428	455.78455	-855.66699	-1067.91382	312.67758	-888.77704	-1172.20386	147.73639	-946.46167	-1222.74500	113.47342	-881.94165	-1056.74316	30.87519	-997.10663	-886.44977	1773.24854						 
77	0.760	-1077.85950	-754.56689	1738.31982	-933.22028	-766.96387	1715.28699	-1101.50769	-858.32471	1634.43567	-963.37427	-885.22180	1607.20544	-1025.67114	-902.45898	1501.41602	-1014.84442	-948.50592	1226.23950	-1039.07947	-760.05341	1436.20374	-1023.85474	-703.68768	1266.01978	-956.64502	-955.37152	1328.78821	-1206.78125	-839.57062	1471.12305	-1283.57935	-894.32379	1278.26990	-1294.51343	-927.89001	1143.88074	-1318.50342	-956.77716	1017.78625	-1312.20386	-931.45850	878.46735	-1332.28418	-981.58691	896.86731	-1340.26611	-982.68921	829.13208	-840.33887	-817.36969	1473.09851	-748.53455	-817.46802	1284.33423	-722.75122	-769.01923	1144.71106	-708.42273	-702.45758	1043.31250	-734.36206	-615.48480	941.22546	-698.57965	-655.75342	921.46558	-699.05255	-597.63440	878.07312	-1141.89026	-699.15631	978.89807	-884.42371	-719.77124	947.51965	-1077.35400	-917.70172	1012.71692	-965.01990	-929.61334	1003.70966	-1218.21790	-701.78241	679.90979	-1189.73608	-678.29980	477.97455	-1197.56287	-690.52557	283.01114	-1165.27185	-645.66559	65.56080	-1113.27600	-677.68372	37.04434	-1173.24475	-488.39041	38.25705	-828.11029	-873.33960	657.35773	-855.53210	-929.73834	456.74280	-855.08423	-1057.61523	316.47556	-887.92560	-1165.35583	154.06258	-946.54761	-1215.94678	121.68248	-881.68109	-1055.71179	30.92809	-999.68951	-877.73792	1774.28503						 
